<?xml version="1.0" encoding="UTF-8"?>
<svg version="1.1" xmlns="http://www.w3.org/2000/svg" width="887" height="215">
<path d="M0 0 C0.07624757 7.13493991 0.12868289 14.26977418 0.16479492 21.4050293 C0.17985409 23.83085049 0.20030562 26.25664458 0.22631836 28.68237305 C0.26282703 32.17503562 0.27975553 35.66733725 0.29296875 39.16015625 C0.30845261 40.23959 0.32393646 41.31902374 0.33988953 42.4311676 C0.34154615 49.89225091 -0.38152841 54.88614189 -5.3125 60.75 C-9.59687186 64.33691597 -13.55919719 66.00742111 -19 67 C-17.06353911 68.64706928 -15.12606194 70.29290588 -13.1875 71.9375 C-12.60524658 72.43169434 -12.02299316 72.92588867 -11.4230957 73.43505859 C-6.65593574 77.47015367 -1.8222884 81.41351487 3.05078125 85.3203125 C3.69402344 85.87460938 4.33726562 86.42890625 5 87 C5 87.33 5 87.66 5 88 C-3.25 88 -11.5 88 -20 88 C-20 100.54 -20 113.08 -20 126 C-27.92 126 -35.84 126 -44 126 C-44 110.82 -44 95.64 -44 80 C-40.37 79.67 -36.74 79.34 -33 79 C-34.58143471 77.56041153 -36.16522779 76.12341355 -37.75 74.6875 C-38.63171875 73.88699219 -39.5134375 73.08648437 -40.421875 72.26171875 C-45.28291551 67.81987813 -45.28291551 67.81987813 -51.51806641 66.51660156 C-52.85062973 66.47336761 -52.85062973 66.47336761 -54.21011353 66.42926025 C-55.16429169 66.41651062 -56.11846985 66.40376099 -57.1015625 66.390625 C-58.09320404 66.37352478 -59.08484558 66.35642456 -60.10653687 66.33880615 C-62.20618114 66.31048189 -64.30595827 66.29086427 -66.40576172 66.27929688 C-69.59454395 66.25027717 -72.77743255 66.15727822 -75.96484375 66.0625 C-88.5761252 65.56757748 -88.5761252 65.56757748 -99.2109375 71.359375 C-100.49995958 72.8846507 -101.76620496 74.42971541 -103 76 C-104.30128172 77.04136625 -105.62578671 78.05696468 -107 79 C-104.69 79.33 -102.38 79.66 -100 80 C-98.60856269 111.31498471 -98.60856269 111.31498471 -107 126 C-114.92 126 -122.84 126 -131 126 C-126.04556962 113.09240506 -126.04556962 113.09240506 -124.875 110.71875 C-123.50124713 106.45030357 -123.52675834 102.14495166 -123.375 97.6875 C-123.189375 92.8921875 -123.189375 92.8921875 -123 88 C-130.26 88 -137.52 88 -145 88 C-137.41599694 80.41599694 -129.54583107 73.4782913 -121 67 C-127.6 66.67 -134.2 66.34 -141 66 C-141 46.53 -141 27.06 -141 7 C-132.71390625 6.99742188 -124.4278125 6.99484375 -115.890625 6.9921875 C-109.93039391 6.97531177 -103.9702671 6.95468085 -98.01007843 6.92868423 C-90.31458715 6.89561252 -82.61939775 6.87101983 -74.92382812 6.87988281 C-68.16729157 6.8876325 -61.41142787 6.8637009 -54.65502167 6.82144547 C-52.0926115 6.81040499 -49.5301343 6.80953094 -46.96772003 6.81957626 C-32.72486022 6.86820085 -20.18066957 6.09640799 -6.6918335 1.28421021 C-3 0 -3 0 0 0 Z M-122 23 C-122 25.31 -122 27.62 -122 30 C-108.47 30 -94.94 30 -81 30 C-81 27.69 -81 25.38 -81 23 C-94.53 23 -108.06 23 -122 23 Z M-57 23 C-57 25.31 -57 27.62 -57 30 C-47.1 30 -37.2 30 -27 30 C-27 34.29 -27 38.58 -27 43 C-36.9 43 -46.8 43 -57 43 C-57 45.31 -57 47.62 -57 50 C-52.21284377 50.07415168 -47.42602173 50.12860204 -42.63842773 50.16479492 C-41.00978777 50.17988243 -39.38118844 50.20035506 -37.75268555 50.22631836 C-35.41184465 50.26270449 -33.07154081 50.2797262 -30.73046875 50.29296875 C-29.63813179 50.31619453 -29.63813179 50.31619453 -28.52372742 50.33988953 C-25.67070275 50.34083956 -23.52029966 50.31031789 -21.03515625 48.828125 C-19.59170568 46.27893682 -19.66066671 44.37799705 -19.70703125 41.45703125 C-19.71452393 40.48999268 -19.7220166 39.5229541 -19.72973633 38.52661133 C-19.77070435 36.68812622 -19.77070435 36.68812622 -19.8125 34.8125 C-19.874375 30.914375 -19.93625 27.01625 -20 23 C-32.21 23 -44.42 23 -57 23 Z M-122 43 C-122 45.31 -122 47.62 -122 50 C-108.47 50 -94.94 50 -81 50 C-81 47.69 -81 45.38 -81 43 C-94.53 43 -108.06 43 -122 43 Z " fill="#FFFFFF" transform="translate(538,6)"/>
<path d="M0 0 C3.60241767 0.00543351 7.20471466 -0.0000131 10.80712891 -0.00634766 C13.09749376 -0.00568809 15.38785855 -0.00440945 17.67822266 -0.00244141 C18.75514374 -0.00446564 19.83206482 -0.00648987 20.94161987 -0.00857544 C22.42554733 -0.0038472 22.42554733 -0.0038472 23.93945312 0.00097656 C24.81052704 0.00177216 25.68160095 0.00256775 26.57907104 0.00338745 C28.68603516 0.13037109 28.68603516 0.13037109 30.68603516 1.13037109 C30.4109635 7.19433022 30.12280098 13.25753706 29.82275391 19.3203125 C29.73611365 21.10107916 29.65241719 22.88199352 29.57275391 24.66308594 C29.47334333 26.88187488 29.36250259 29.09978971 29.24853516 31.31787109 C29.18794922 32.59017578 29.12736328 33.86248047 29.06494141 35.17333984 C28.68603516 38.13037109 28.68603516 38.13037109 26.68603516 40.13037109 C24.14559937 40.35069275 24.14559937 40.35069275 20.89453125 40.30981445 C19.67921722 40.29998032 18.4639032 40.29014618 17.21176147 40.28001404 C16.56007366 40.27015409 15.90838585 40.26029415 15.23694992 40.25013542 C13.19305577 40.21997257 11.14944763 40.20316243 9.1053772 40.19007874 C3.29301387 40.15034552 -2.51900703 40.0856517 -8.33105469 40.01391602 C-11.88652175 39.97096051 -15.44187009 39.9430077 -18.99753952 39.92361641 C-21.00048875 39.90802648 -23.00327887 39.87508061 -25.00601196 39.84178162 C-33.11097034 39.79790222 -39.49261763 40.0199722 -46.00146484 45.31787109 C-46.76458984 46.24599609 -47.52771484 47.17412109 -48.31396484 48.13037109 C-48.78060547 48.69626953 -49.24724609 49.26216797 -49.72802734 49.84521484 C-53.79671314 55.40272142 -54.20771093 60.39290061 -53.31396484 67.13037109 C-52.06288939 72.76498573 -49.85510298 76.43409587 -45.31396484 80.13037109 C-41.05634568 82.60035413 -37.95772383 83.50968316 -33.04907227 83.546875 C-31.22269478 83.5717247 -31.22269478 83.5717247 -29.35942078 83.59707642 C-28.05922501 83.60032928 -26.75902924 83.60358215 -25.41943359 83.60693359 C-24.0627539 83.62125554 -22.70608868 83.6370147 -21.34944153 83.65414429 C-17.79398457 83.69584695 -14.2386175 83.72094846 -10.6829834 83.74163818 C-4.97460909 83.77757306 0.7335443 83.83832091 6.44168663 83.90012741 C8.43648848 83.9192507 10.43136121 83.93044309 12.42622375 83.94155884 C14.22896004 83.95695206 14.22896004 83.95695206 16.06811523 83.97265625 C17.66312614 83.98239975 17.66312614 83.98239975 19.2903595 83.99234009 C21.68603516 84.13037109 21.68603516 84.13037109 22.68603516 85.13037109 C23.18333394 93.24804244 22.62007414 101.51040528 22.31103516 109.63037109 C22.28025879 110.58580811 22.24948242 111.54124512 22.21777344 112.52563477 C22.15952393 113.892323 22.15952393 113.892323 22.10009766 115.28662109 C22.05296631 116.50575195 22.05296631 116.50575195 22.00488281 117.74951172 C21.64315667 120.45054798 20.78693535 122.64713757 19.68603516 125.13037109 C12.80331221 125.15594923 5.92060174 125.17333272 -0.9621582 125.18530273 C-3.29842588 125.19029855 -5.63469049 125.19709746 -7.97094727 125.20581055 C-53.51104804 125.37126934 -53.51104804 125.37126934 -70.43896484 109.63037109 C-84.20643116 95.25583539 -87.94010448 78.4130509 -87.64990234 59.08740234 C-87.00190286 42.19925061 -78.55039288 26.64301781 -66.31396484 15.13037109 C-46.45322618 -1.44873089 -24.3859283 -0.04396298 0 0 Z " fill="#FFFFFF" transform="translate(89.31396484375,-0.13037109375)"/>
<path d="M0 0 C47.52 0 95.04 0 144 0 C144 43.49602122 144 43.49602122 138.0625 49.9375 C137.57910156 50.48277344 137.09570312 51.02804688 136.59765625 51.58984375 C133.10593609 54.67177768 130.14332263 55.24931671 125.54571533 55.24050903 C124.43796249 55.24325836 123.33020966 55.24600769 122.18888855 55.24884033 C120.97832291 55.24164978 119.76775726 55.23445923 118.52050781 55.22705078 C117.24220596 55.22734283 115.96390411 55.22763489 114.64686584 55.22793579 C111.14509197 55.22850951 107.64345517 55.21675207 104.14171314 55.20278788 C100.48085538 55.19028379 96.81999447 55.18911027 93.15911865 55.18673706 C86.22831676 55.18052134 79.29757799 55.16410929 72.36680388 55.14403808 C64.47569723 55.12168193 56.58458756 55.11068637 48.69345713 55.10064721 C32.46226199 55.07974313 16.23115377 55.04306576 0 55 C0 36.85 0 18.7 0 0 Z M24 16 C24 17.98 24 19.96 24 22 C53.04 22 82.08 22 112 22 C112 25.96 112 29.92 112 34 C82.96 34 53.92 34 24 34 C24 35.98 24 37.96 24 40 C35.8130765 40.06943466 47.62610464 40.12277803 59.43934345 40.15543652 C64.92439786 40.17110899 70.40931291 40.19237618 75.89428711 40.22631836 C81.1851406 40.2588553 86.47585985 40.27684109 91.76680565 40.28463173 C93.78788556 40.29018543 95.80895792 40.30103011 97.82998085 40.31719017 C100.65545296 40.3388891 103.48036652 40.34197008 106.3059082 40.34057617 C107.14603958 40.351362 107.98617096 40.36214783 108.85176086 40.3732605 C114.0286007 40.37037653 114.0286007 40.37037653 118 37 C118 30.07 118 23.14 118 16 C86.98 16 55.96 16 24 16 Z " fill="#FFFFFF" transform="translate(564,78)"/>
<path d="M0 0 C1.19947266 0.00515625 2.39894531 0.0103125 3.63476562 0.015625 C5.51518555 0.0465625 5.51518555 0.0465625 7.43359375 0.078125 C8.69107422 0.08328125 9.94855469 0.0884375 11.24414062 0.09375 C20.56275015 0.1739532 20.56275015 0.1739532 22.87109375 1.328125 C23.13473245 10.92652649 22.16548745 20.35561587 21.18359375 29.890625 C21.05162598 31.18179733 21.05162598 31.18179733 20.91699219 32.49905396 C19.7937181 43.33409441 18.48433093 54.07246346 16.37109375 64.765625 C16.18200439 65.73894775 15.99291504 66.71227051 15.7980957 67.71508789 C12.75925842 81.96035315 3.67113801 94.19676584 -8.24609375 102.5 C-17.69861036 108.57622743 -25.83432427 111.60215995 -36.94140625 112.953125 C-37.86244141 113.07429688 -38.78347656 113.19546875 -39.73242188 113.3203125 C-42.53002837 113.68053615 -45.32460063 114.0234371 -48.12890625 114.328125 C-48.90074753 114.41374191 -49.67258881 114.49935883 -50.46781921 114.58757019 C-57.73845429 115.33014785 -64.93002435 115.45867 -72.234375 115.42578125 C-73.43959305 115.4243663 -74.6448111 115.42295135 -75.8865509 115.42149353 C-79.69652906 115.41594271 -83.50644617 115.40339959 -87.31640625 115.390625 C-89.91601477 115.38560364 -92.51562422 115.38104185 -95.11523438 115.37695312 C-101.45314546 115.36598944 -107.79102149 115.34930106 -114.12890625 115.328125 C-114.21030752 100.52730764 -114.21030752 100.52730764 -113.69140625 93.765625 C-113.61019531 92.65058594 -113.52898437 91.53554687 -113.4453125 90.38671875 C-113.16126373 87.64091399 -112.69032213 85.02731665 -112.12890625 82.328125 C-110.77492989 82.32265656 -110.77492989 82.32265656 -109.39360046 82.31707764 C-100.84673099 82.27905916 -92.30023773 82.22205036 -83.75363445 82.14422226 C-79.36072582 82.10487506 -74.96801382 82.07262454 -70.57495117 82.05712891 C-66.32771449 82.04187758 -62.08101885 82.00728412 -57.83402443 81.95981598 C-56.22154278 81.94508891 -54.60898384 81.93708902 -52.99643517 81.93624115 C-41.36412107 81.92398466 -30.81475395 81.16412005 -21.6640625 73.18359375 C-9.62928285 58.63774048 -10.84531071 31.27724655 -9.92675781 13.39208984 C-9.82959473 11.50997803 -9.82959473 11.50997803 -9.73046875 9.58984375 C-9.68486816 8.45893311 -9.63926758 7.32802246 -9.59228516 6.1628418 C-9.12890625 3.328125 -9.12890625 3.328125 -7.97436523 1.45727539 C-5.27957685 -0.1915401 -3.14158421 -0.02662554 0 0 Z " fill="#FFFFFF" transform="translate(138.12890625,83.671875)"/>
<path d="M0 0 C8.38856185 -0.06957382 16.77700273 -0.12284852 25.16578197 -0.15543652 C29.06122736 -0.17107878 32.95647503 -0.19229041 36.85180664 -0.22631836 C40.61248525 -0.25896368 44.37297394 -0.27686385 48.13378334 -0.28463173 C49.56709087 -0.290166 51.00038826 -0.30097321 52.43361473 -0.31719017 C54.44416503 -0.33903055 56.45490728 -0.34022597 58.46557617 -0.34057617 C59.60919113 -0.34723801 60.75280609 -0.35389984 61.93107605 -0.36076355 C66.58991448 0.18690043 69.11617009 2.04251759 72.25 5.4375 C75.01497763 9.48621725 75.1300621 12.90281289 75.17700195 17.74316406 C75.19625481 19.47581512 75.19625481 19.47581512 75.21589661 21.24346924 C75.22328354 22.48828064 75.23067047 23.73309204 75.23828125 25.015625 C75.246353 26.30055847 75.25442474 27.58549194 75.26274109 28.90936279 C75.27774116 31.62951523 75.28759149 34.34964184 75.29516602 37.06982422 C75.30621148 40.53759472 75.34060013 44.00472021 75.38033772 47.47226334 C75.41292483 50.79919011 75.41729262 54.12605105 75.42578125 57.453125 C75.44328934 58.68983948 75.46079742 59.92655396 75.47883606 61.20074463 C75.46113056 68.26770699 74.92632002 73.0433143 71 79 C67.60102327 81.26598448 66.43680827 81.23742654 62.45703125 81.1953125 C61.38388672 81.18886719 60.31074219 81.18242187 59.20507812 81.17578125 C57.52575195 81.15064453 57.52575195 81.15064453 55.8125 81.125 C54.68134766 81.11597656 53.55019531 81.10695313 52.38476562 81.09765625 C49.58963172 81.07406862 46.79492155 81.041153 44 81 C44.45261358 79.56068883 44.91232979 78.12361001 45.375 76.6875 C45.75785156 75.48673828 45.75785156 75.48673828 46.1484375 74.26171875 C47 72 47 72 49 69 C51.125 68.3125 51.125 68.3125 53 68 C53.07595711 61.07665012 53.12856051 54.15340737 53.16479492 47.22973633 C53.17989747 44.87357569 53.20038091 42.51744323 53.22631836 40.16137695 C53.26263656 36.77808688 53.27971167 33.39516792 53.29296875 30.01171875 C53.30845261 28.95538742 53.32393646 27.89905609 53.33988953 26.81071472 C53.34022942 25.33952934 53.34022942 25.33952934 53.34057617 23.83862305 C53.34723801 22.97480515 53.35389984 22.11098724 53.36076355 21.22099304 C52.91732017 18.49099256 52.21550028 17.61701701 50 16 C46.70728404 15.49141092 46.70728404 15.49141092 42.92578125 15.48828125 C42.2419487 15.47033005 41.55811615 15.45237885 40.8535614 15.43388367 C38.67327 15.37977925 36.49319744 15.3458866 34.3125 15.3125 C32.83265183 15.2793268 31.35283255 15.24483713 29.87304688 15.20898438 C26.24890831 15.12405476 22.62469348 15.05724365 19 15 C19 17.64 19 20.28 19 23 C27.91 23 36.82 23 46 23 C46 27.62 46 32.24 46 37 C37.09 37 28.18 37 19 37 C19 39.64 19 42.28 19 45 C27.91 45 36.82 45 46 45 C46 49.62 46 54.24 46 59 C37.09 59 28.18 59 19 59 C19 62.3 19 65.6 19 69 C18.25143351 73.10820421 17.12507905 76.96846675 16 81 C9.4 81 2.8 81 -4 81 C-3.51917969 78.87691406 -3.03835938 76.75382812 -2.54296875 74.56640625 C0.08099354 60.99195729 -0.43016754 46.94061925 -0.33044434 33.16473389 C-0.30024439 29.41634581 -0.25385408 25.66815796 -0.20898438 21.91992188 C-0.12382546 14.61338235 -0.05610079 7.30682673 0 0 Z " fill="#FFFFFF" transform="translate(732,53)"/>
<path d="M0 0 C1.71123047 -0.00386719 1.71123047 -0.00386719 3.45703125 -0.0078125 C4.64941406 -0.00007813 5.84179688 0.00765625 7.0703125 0.015625 C8.25496094 0.00789063 9.43960938 0.00015625 10.66015625 -0.0078125 C11.80355469 -0.00523438 12.94695312 -0.00265625 14.125 0 C15.69096924 0.00338379 15.69096924 0.00338379 17.28857422 0.00683594 C20.29735004 0.27470948 22.43419343 1.09389311 25.1953125 2.265625 C25.39484497 12.71322391 24.76976607 23.08234449 24.13671875 33.50390625 C24.02672005 35.35652457 23.91702015 37.20916066 23.80760193 39.06181335 C23.52015999 43.91408227 23.22840371 48.76608254 22.93579102 53.61804199 C22.69951276 57.54774803 22.46626879 61.47763131 22.23320103 65.40752888 C20.96400558 86.80529303 20.96400558 86.80529303 20.33311844 97.00815201 C20.19596636 99.25491378 20.06475981 101.50197028 19.93405151 103.74911499 C19.85069983 105.12206307 19.76714425 106.4949988 19.68334961 107.86791992 C19.57765907 109.65561043 19.57765907 109.65561043 19.46983337 111.47941589 C19.1953125 114.265625 19.1953125 114.265625 18.1953125 116.265625 C10.40475874 117.54197538 2.2659325 117.35751258 -5.6171875 117.390625 C-6.41181396 117.39529785 -7.20644043 117.3999707 -8.02514648 117.40478516 C-13.68158097 117.38873153 -13.68158097 117.38873153 -14.8046875 116.265625 C-14.9151305 113.53743875 -14.9555462 110.84215974 -14.94262695 108.11352539 C-14.93878101 106.84063581 -14.93878101 106.84063581 -14.93485737 105.54203129 C-14.85376983 95.24195946 -14.23488201 84.97715168 -13.59765625 74.69921875 C-13.47022609 72.60124787 -13.34289337 70.50327107 -13.21565247 68.4052887 C-12.95009519 64.05449982 -12.67952836 59.70405471 -12.40600586 55.35375977 C-12.05600123 49.77157135 -11.72487331 44.18842572 -11.39799023 38.60484219 C-11.14253157 34.29354985 -10.87429723 29.98312289 -10.60241127 25.67283821 C-10.47455611 23.61216645 -10.35141274 21.55119677 -10.23305321 19.48995781 C-10.06750034 16.62956156 -9.88409934 13.77085767 -9.69604492 10.91186523 C-9.65072632 10.06058548 -9.60540771 9.20930573 -9.55871582 8.33222961 C-9.39323425 5.98484802 -9.39323425 5.98484802 -8.8046875 2.265625 C-5.3658093 -0.02696047 -4.04839154 0.00876682 0 0 Z " fill="#FFFFFF" transform="translate(183.8046875,83.734375)"/>
<path d="M0 0 C0.07620909 7.70460661 0.12866692 15.4091156 0.16479492 23.11401367 C0.17985979 25.73384229 0.20031554 28.35364578 0.22631836 30.97338867 C0.26280162 34.74404105 0.27974988 38.51435926 0.29296875 42.28515625 C0.30845261 43.45208511 0.32393646 44.61901398 0.33988953 45.82130432 C0.3414784 53.53879697 -0.21358901 58.68643017 -5.3125 64.75 C-12.10496238 70.43671269 -17.86356063 70.40835403 -26.3984375 70.29296875 C-27.45393799 70.28994751 -28.50943848 70.28692627 -29.59692383 70.28381348 C-33.52304932 70.26816986 -37.44903493 70.22628598 -41.375 70.1875 C-50.16125 70.125625 -58.9475 70.06375 -68 70 C-68 49.21 -68 28.42 -68 7 C-46.75 6.875 -46.75 6.875 -40.18261719 6.88232422 C-27.56191662 6.76743166 -16.66248507 4.88233938 -4.79962158 0.53689575 C-3 0 -3 0 0 0 Z M-43 24 C-43 33.24 -43 42.48 -43 52 C-39.1328125 52.12375 -39.1328125 52.12375 -35.1875 52.25 C-34.37949951 52.28641602 -33.57149902 52.32283203 -32.73901367 52.36035156 C-30.48021399 52.43374101 -30.48021399 52.43374101 -27 52 C-24.75336123 49.8146332 -24.05929443 48.46262406 -23.65942383 45.34277344 C-23.67513428 44.35825195 -23.69084473 43.37373047 -23.70703125 42.359375 C-23.71669922 41.28945313 -23.72636719 40.21953125 -23.73632812 39.1171875 C-23.76146484 38.00601563 -23.78660156 36.89484375 -23.8125 35.75 C-23.82603516 34.62335937 -23.83957031 33.49671875 -23.85351562 32.3359375 C-23.88883999 29.55708719 -23.94264599 26.77848293 -24 24 C-30.27 24 -36.54 24 -43 24 Z " fill="#FFFFFF" transform="translate(710,5)"/>
<path d="M0 0 C8.25 0 16.5 0 25 0 C24.34 1.98 23.68 3.96 23 6 C37.52 6 52.04 6 67 6 C67 11.61 67 17.22 67 23 C60.07 23 53.14 23 46 23 C46 24.65 46 26.3 46 28 C53.26 28 60.52 28 68 28 C68 33.94 68 39.88 68 46 C64.37 46 60.74 46 57 46 C57.60328125 46.72445312 58.2065625 47.44890625 58.828125 48.1953125 C59.62734375 49.16210938 60.4265625 50.12890625 61.25 51.125 C62.03890625 52.07632813 62.8278125 53.02765625 63.640625 54.0078125 C65.94329752 56.92808923 67.98222194 59.88077429 70 63 C48.3610972 64.75516909 48.3610972 64.75516909 42.93261719 61.92041016 C39.73631009 59.17862379 37.7208679 55.79947895 36 52 C32.33526558 53.50982923 30.35964385 55.70458893 27.6953125 58.58984375 C22.24968369 63.58050357 18.03330662 63.95512487 10.8125 63.79101562 C8.8634375 63.67790039 8.8634375 63.67790039 6.875 63.5625 C5.52357274 63.51724697 4.17199776 63.47620146 2.8203125 63.43945312 C-0.45697087 63.33411187 -3.72651747 63.18675515 -7 63 C-3.35735002 58.5283054 0.33375096 54.66227058 4.875 51.0625 C6.56625 49.721875 8.2575 48.38125 10 47 C4.39 46.67 -1.22 46.34 -7 46 C-7 40.06 -7 34.12 -7 28 C2.24 28 11.48 28 21 28 C21 26.35 21 24.7 21 23 C11.76 23 2.52 23 -7 23 C-5.19191518 14.86361831 -2.86958203 7.77807762 0 0 Z " fill="#FFFFFF" transform="translate(569,12)"/>
<path d="M0 0 C7.26 0 14.52 0 22 0 C22.33 6.6 22.66 13.2 23 20 C26.06721805 15.99303054 26.06721805 15.99303054 29.1315918 11.98388672 C29.97511404 10.88463132 30.83123613 9.79499089 31.69604492 8.71240234 C33.21586207 6.77543719 33.21586207 6.77543719 35.09375 3.59375 C39.6011567 -0.42898931 43.99703316 0.34790384 49.8125 0.625 C51.42415039 0.66560547 51.42415039 0.66560547 53.06835938 0.70703125 C55.71429568 0.77758955 58.3561124 0.87611244 61 1 C58.38814478 5.84711735 55.53057974 9.99544015 51.875 14.125 C47.92144221 18.69036197 44.10834207 23.3288498 40.4375 28.125 C40.02032715 28.66914551 39.6031543 29.21329102 39.17333984 29.77392578 C37.37089345 32.14155238 35.65140189 34.52289717 34 37 C31.3984375 37.29296875 31.3984375 37.29296875 28.375 37.1875 C26.87066406 37.14689453 26.87066406 37.14689453 25.3359375 37.10546875 C24.56507813 37.07066406 23.79421875 37.03585938 23 37 C23.66 37.99 24.32 38.98 25 40 C28.05584207 40.39818548 30.81212284 40.56939967 33.875 40.5625 C34.75526855 40.56443359 35.63553711 40.56636719 36.54248047 40.56835938 C45.95990664 40.3479906 54.44806425 37.7125477 63.25439453 34.55078125 C65 34 65 34 67 34 C67 41.59 67 49.18 67 57 C59.27703956 57.07422264 51.55428733 57.12863747 43.83105469 57.16479492 C41.20439029 57.1798702 38.57775101 57.20033366 35.95117188 57.22631836 C32.17311396 57.26275576 28.39538923 57.27973938 24.6171875 57.29296875 C23.44509735 57.30845261 22.2730072 57.32393646 21.06539917 57.33988953 C13.53697868 57.34143936 8.96590362 56.63635878 3.1875 51.5 C0.24922707 48.14197379 -0.12532139 45.74230721 -0.11352539 41.43676758 C-0.11344986 40.51603958 -0.11337433 39.59531158 -0.11329651 38.64668274 C-0.10813522 37.65597275 -0.10297394 36.66526276 -0.09765625 35.64453125 C-0.0962413 34.62775803 -0.09482635 33.6109848 -0.09336853 32.56340027 C-0.08776707 29.31307036 -0.07521432 26.06280912 -0.0625 22.8125 C-0.05748519 20.61002704 -0.05292225 18.40755299 -0.04882812 16.20507812 C-0.03864769 10.80333762 -0.01907246 5.40174575 0 0 Z " fill="#FFFFFF" transform="translate(813,75)"/>
<path d="M0 0 C0 8.25 0 16.5 0 25 C-48.51 25 -97.02 25 -147 25 C-147 19.06 -147 13.12 -147 7 C-144.73639618 7.00119339 -144.73639618 7.00119339 -142.42706299 7.00241089 C-128.12900777 7.0060304 -113.83138321 6.97830882 -99.53346634 6.9197216 C-92.18467127 6.89039233 -84.83616178 6.87184152 -77.48730469 6.87988281 C-71.07197145 6.88687393 -64.65708139 6.87240175 -58.24185634 6.83356392 C-54.85382001 6.81376505 -51.46705532 6.80696246 -48.07889557 6.81957626 C-33.47098696 6.86694054 -20.47647298 6.26433086 -6.64569092 1.28421021 C-3 0 -3 0 0 0 Z " fill="#FFFFFF" transform="translate(374,106)"/>
<path d="M0 0 C7.26 0 14.52 0 22 0 C22.33 6.6 22.66 13.2 23 20 C25.14812085 17.37684269 27.29357788 14.75158521 29.4375 12.125 C30.04916016 11.37863281 30.66082031 10.63226563 31.29101562 9.86328125 C31.87431641 9.14785156 32.45761719 8.43242187 33.05859375 7.6953125 C33.86768188 6.7055542 33.86768188 6.7055542 34.69311523 5.69580078 C36.06791327 4.02396512 36.06791327 4.02396512 37 2 C44.92 2 52.84 2 61 2 C56.50601685 8.74097473 56.50601685 8.74097473 54.1171875 11.62890625 C53.33384033 12.58398071 53.33384033 12.58398071 52.53466797 13.55834961 C51.40206741 14.92603392 50.2682239 16.29268963 49.13330078 17.65844727 C46.38349052 20.99052088 43.72774613 24.31410946 41.3125 27.8984375 C35.4305166 36.52194471 35.4305166 36.52194471 30.9375 38.0234375 C28.19914791 38.28190441 25.72769109 38.31632919 23 38 C23.33 38.66 23.66 39.32 24 40 C35.91528186 43.97176062 47.82885087 39.69756791 59.03979492 35.55078125 C61 35 61 35 65 35 C65 42.26 65 49.52 65 57 C57.27705617 57.0989633 49.55448243 57.1715154 41.83105469 57.21972656 C39.20436167 57.23982715 36.57771331 57.26711204 33.95117188 57.30175781 C30.17306488 57.35034164 26.39555016 57.37298509 22.6171875 57.390625 C21.44509735 57.41127014 20.2730072 57.43191528 19.06539917 57.45318604 C8.66616121 57.45604049 8.66616121 57.45604049 4 53 C-0.80502825 47.74481226 -0.53037238 42.88220173 -0.390625 36.1328125 C-0.38496521 35.09808807 -0.37930542 34.06336365 -0.37347412 32.99728394 C-0.35115852 29.70604371 -0.30096966 26.41590886 -0.25 23.125 C-0.22992884 20.8880366 -0.21167915 18.65105607 -0.1953125 16.4140625 C-0.15471815 10.94194421 -0.07641556 5.47220321 0 0 Z " fill="#FFFFFF" transform="translate(813,12)"/>
<path d="M0 0 C0 8.25 0 16.5 0 25 C-42.57 25 -85.14 25 -129 25 C-129 19.06 -129 13.12 -129 7 C-127.70390808 7.00079559 -126.40781616 7.00159119 -125.07244873 7.00241089 C-112.77579678 7.00603472 -100.47955976 6.97788848 -88.18304062 6.9197216 C-81.86330192 6.89081871 -75.54392989 6.87258024 -69.22412109 6.87988281 C-63.109464 6.88653646 -56.99552759 6.86365074 -50.88101959 6.82144547 C-48.5642275 6.81042087 -46.24736136 6.80951615 -43.93056488 6.81957626 C-30.34901767 6.87092512 -18.5550327 5.78244144 -5.67877197 1.28421021 C-2 0 -2 0 0 0 Z " fill="#FFFFFF" transform="translate(365,7)"/>
<path d="M0 0 C0 8.58 0 17.16 0 26 C-37.95 26 -75.9 26 -115 26 C-115 19.73 -115 13.46 -115 7 C-110.8857959 7.00169189 -110.8857959 7.00169189 -106.68847656 7.00341797 C-97.54816498 7.00278578 -88.40818091 6.96904564 -79.26800919 6.9197216 C-73.73520081 6.89085264 -68.20281011 6.87256881 -62.66992188 6.87988281 C-57.31383588 6.88655016 -51.95856984 6.86357631 -46.6026535 6.82144547 C-44.57613806 6.81044451 -42.54953811 6.80949396 -40.52301788 6.81957626 C-26.52474729 6.88019862 -13.0191816 0 0 0 Z " fill="#FFFFFF" transform="translate(358,54)"/>
<path d="M0 0 C7.59 0 15.18 0 23 0 C20.44389859 7.66830423 17.67211093 13.90058554 14 21 C24.395 20.505 24.395 20.505 35 20 C34.01 17.36 33.02 14.72 32 12 C39.26 12 46.52 12 54 12 C58.90909091 23.04545455 58.90909091 23.04545455 60.75 27.375 C61.17796875 28.37273438 61.6059375 29.37046875 62.046875 30.3984375 C63 33 63 33 63 36 C37.26 36 11.52 36 -15 36 C-13.49623492 31.48870476 -11.86308082 27.19151942 -9.9609375 22.8515625 C-9.67521881 22.19417084 -9.38950012 21.53677917 -9.09512329 20.85946655 C-8.19080253 18.78026206 -7.28296307 16.70261614 -6.375 14.625 C-5.75757843 13.20713315 -5.14038861 11.78916537 -4.5234375 10.37109375 C-3.01873013 6.91269375 -1.50926435 3.45642793 0 0 Z " fill="#FFFFFF" transform="translate(746,11)"/>
<path d="M0 0 C4.70174087 3.32612236 7.6713088 7.56508113 8.7890625 13.265625 C8.87668269 19.24570268 7.79452124 24.67817653 3.7890625 29.265625 C-2.23255825 34.03840859 -7.50510506 35.77934716 -15.2109375 35.265625 C-21.68433617 33.90082722 -25.59750843 30.7670395 -29.2109375 25.265625 C-30.90436272 20.18534933 -31.18032824 14.35482804 -29.5625 9.19921875 C-27.02316391 4.3484357 -22.55036833 -0.63236282 -17.2578125 -2.37890625 C-10.92755323 -3.47824517 -5.66083417 -3.20254363 0 0 Z " fill="#FF0000" transform="translate(205.2109375,3.734375)"/>
<path d="M0 0 C1.25361328 0.0515625 2.50722656 0.103125 3.79882812 0.15625 C5.10916016 0.22070312 6.41949219 0.28515625 7.76953125 0.3515625 C9.10477589 0.40982066 10.44006258 0.46712356 11.77539062 0.5234375 C15.04480675 0.66507286 18.31347367 0.81650345 21.58203125 0.9765625 C21.44237831 5.33095027 21.29420883 9.68500869 21.14453125 14.0390625 C21.10521484 15.26818359 21.06589844 16.49730469 21.02539062 17.76367188 C20.45275402 34.10583973 20.45275402 34.10583973 18.58203125 35.9765625 C16.52147815 36.07649782 14.45750535 36.10737156 12.39453125 36.109375 C11.13898438 36.11066406 9.8834375 36.11195312 8.58984375 36.11328125 C7.93274414 36.11118652 7.27564453 36.1090918 6.59863281 36.10693359 C4.5904179 36.10158484 2.58242666 36.10687941 0.57421875 36.11328125 C-0.68132812 36.11199219 -1.936875 36.11070313 -3.23046875 36.109375 C-4.39191406 36.10824707 -5.55335938 36.10711914 -6.75 36.10595703 C-9.41796875 35.9765625 -9.41796875 35.9765625 -10.41796875 34.9765625 C-10.51710985 33.64096348 -10.54876687 32.30020956 -10.55078125 30.9609375 C-10.55404419 29.71062744 -10.55404419 29.71062744 -10.55737305 28.43505859 C-10.55261963 27.54125488 -10.54786621 26.64745117 -10.54296875 25.7265625 C-10.53885986 24.82373535 -10.53475098 23.9209082 -10.53051758 22.99072266 C-10.39331382 6.42890106 -10.39331382 6.42890106 -9.41796875 1.9765625 C-5.78120263 -0.44794825 -4.3034946 -0.19472826 0 0 Z " fill="#FF0000" transform="translate(142.41796875,0.0234375)"/>
<path d="M0 0 C10 0 10 0 12.58813477 2.37084961 C13.19971436 3.45374268 13.81129395 4.53663574 14.44140625 5.65234375 C14.78002182 6.22706924 15.11863739 6.80179474 15.46751404 7.39393616 C16.53525686 9.22365422 17.54852775 11.07754663 18.5625 12.9375 C19.27584325 14.18362402 19.99261055 15.42779456 20.71289062 16.66992188 C22.02306083 18.93588663 23.30628529 21.21045795 24.57641602 23.49975586 C25.77755261 25.86575586 25.77755261 25.86575586 27 27 C27.33 18.09 27.66 9.18 28 0 C30.97 0 33.94 0 37 0 C37 14.19 37 28.38 37 43 C27 43 27 43 24.87890625 41.4453125 C24.22728516 40.29675781 24.22728516 40.29675781 23.5625 39.125 C23.02625 38.23296875 22.49 37.3409375 21.9375 36.421875 C21.298125 35.29265625 20.65875 34.1634375 20 33 C18.58841475 30.68701673 17.16020572 28.38480423 15.73046875 26.08300781 C13.46373712 22.40288672 11.23591681 18.69892411 9 15 C8.67 24.24 8.34 33.48 8 43 C5.36 43 2.72 43 0 43 C0 28.81 0 14.62 0 0 Z " fill="#FFFFFF" transform="translate(809,155)"/>
<path d="M0 0 C10 0 10 0 12.58813477 2.37084961 C13.19971436 3.45374268 13.81129395 4.53663574 14.44140625 5.65234375 C14.78002182 6.22706924 15.11863739 6.80179474 15.46751404 7.39393616 C16.53525686 9.22365422 17.54852775 11.07754663 18.5625 12.9375 C19.27584325 14.18362402 19.99261055 15.42779456 20.71289062 16.66992188 C22.02306083 18.93588663 23.30628529 21.21045795 24.57641602 23.49975586 C25.77755261 25.86575586 25.77755261 25.86575586 27 27 C27.33 18.09 27.66 9.18 28 0 C30.97 0 33.94 0 37 0 C37 14.19 37 28.38 37 43 C27 43 27 43 24.87890625 41.4453125 C24.22728516 40.29675781 24.22728516 40.29675781 23.5625 39.125 C23.02625 38.23296875 22.49 37.3409375 21.9375 36.421875 C21.298125 35.29265625 20.65875 34.1634375 20 33 C18.58841475 30.68701673 17.16020572 28.38480423 15.73046875 26.08300781 C13.46373712 22.40288672 11.23591681 18.69892411 9 15 C8.67 24.24 8.34 33.48 8 43 C5.36 43 2.72 43 0 43 C0 28.81 0 14.62 0 0 Z " fill="#FFFFFF" transform="translate(509,155)"/>
<path d="M0 0 C10 0 10 0 12.58813477 2.37084961 C13.19971436 3.45374268 13.81129395 4.53663574 14.44140625 5.65234375 C14.78002182 6.22706924 15.11863739 6.80179474 15.46751404 7.39393616 C16.53525686 9.22365422 17.54852775 11.07754663 18.5625 12.9375 C19.27584325 14.18362402 19.99261055 15.42779456 20.71289062 16.66992188 C22.02306083 18.93588663 23.30628529 21.21045795 24.57641602 23.49975586 C25.77755261 25.86575586 25.77755261 25.86575586 27 27 C27.33 18.09 27.66 9.18 28 0 C30.97 0 33.94 0 37 0 C37 14.19 37 28.38 37 43 C27 43 27 43 24.87890625 41.4453125 C24.22728516 40.29675781 24.22728516 40.29675781 23.5625 39.125 C23.02625 38.23296875 22.49 37.3409375 21.9375 36.421875 C21.298125 35.29265625 20.65875 34.1634375 20 33 C18.58841475 30.68701673 17.16020572 28.38480423 15.73046875 26.08300781 C13.46373712 22.40288672 11.23591681 18.69892411 9 15 C8.67 24.24 8.34 33.48 8 43 C5.36 43 2.72 43 0 43 C0 28.81 0 14.62 0 0 Z " fill="#FFFFFF" transform="translate(315,155)"/>
<path d="M0 0 C2.78976752 2.55849145 4.21523803 5.87439608 5.5078125 9.3828125 C5.5078125 9.7128125 5.5078125 10.0428125 5.5078125 10.3828125 C3.9051343 10.49106093 2.30035502 10.56851895 0.6953125 10.6328125 C-0.19800781 10.67921875 -1.09132813 10.725625 -2.01171875 10.7734375 C-4.4921875 10.3828125 -4.4921875 10.3828125 -6.10546875 8.43359375 C-6.56308594 7.75683594 -7.02070312 7.08007812 -7.4921875 6.3828125 C-10.85392887 5.12869682 -10.85392887 5.12869682 -14.4921875 5.3828125 C-17.29003047 7.38705602 -19.19364286 8.96066363 -19.92285156 12.43432617 C-20.05688438 14.81136245 -20.02704526 17.12922885 -19.9296875 19.5078125 C-19.92388672 20.31863281 -19.91808594 21.12945312 -19.91210938 21.96484375 C-19.83312087 26.96036554 -19.83312087 26.96036554 -17.4921875 31.3828125 C-14.51498577 32.34264395 -11.60926 32.57138984 -8.4921875 32.3828125 C-5.71796748 30.51021399 -4.79179826 29.28164477 -3.7421875 26.1328125 C-3.6596875 25.5553125 -3.5771875 24.9778125 -3.4921875 24.3828125 C-6.1321875 24.3828125 -8.7721875 24.3828125 -11.4921875 24.3828125 C-11.4921875 21.7428125 -11.4921875 19.1028125 -11.4921875 16.3828125 C-5.8821875 16.3828125 -0.2721875 16.3828125 5.5078125 16.3828125 C5.95832097 31.09942267 5.95832097 31.09942267 0.6953125 37.6328125 C-4.38013604 41.69317133 -10.23398878 42.0708867 -16.4921875 41.3828125 C-22.37349271 39.61842094 -25.04493302 37.2495247 -28.4921875 32.3828125 C-29.90161763 28.15452211 -29.75670575 24.12562719 -29.8046875 19.6953125 C-29.84819336 18.38530273 -29.84819336 18.38530273 -29.89257812 17.04882812 C-29.95110763 11.02028946 -29.02217381 6.36852503 -25.4921875 1.3828125 C-18.00640228 -4.82879651 -8.28246211 -5.20061575 0 0 Z " fill="#FFFFFF" transform="translate(755.4921875,157.6171875)"/>
<path d="M0 0 C10.56 0 21.12 0 32 0 C32 2.31 32 4.62 32 7 C24.41 7 16.82 7 9 7 C9 10.63 9 14.26 9 18 C15.27 18 21.54 18 28 18 C28 20.31 28 22.62 28 25 C21.73 25 15.46 25 9 25 C9 28.63 9 32.26 9 36 C16.59 36 24.18 36 32 36 C32 38.31 32 40.62 32 43 C21.44 43 10.88 43 0 43 C0 28.81 0 14.62 0 0 Z " fill="#FFFFFF" transform="translate(769,155)"/>
<path d="M0 0 C10.56 0 21.12 0 32 0 C32 2.31 32 4.62 32 7 C24.41 7 16.82 7 9 7 C9 10.63 9 14.26 9 18 C15.27 18 21.54 18 28 18 C28 20.31 28 22.62 28 25 C21.73 25 15.46 25 9 25 C9 28.63 9 32.26 9 36 C16.59 36 24.18 36 32 36 C32 38.31 32 40.62 32 43 C21.44 43 10.88 43 0 43 C0 28.81 0 14.62 0 0 Z " fill="#FFFFFF" transform="translate(591,155)"/>
<path d="M0 0 C10.56 0 21.12 0 32 0 C32 2.31 32 4.62 32 7 C24.41 7 16.82 7 9 7 C9 10.63 9 14.26 9 18 C15.27 18 21.54 18 28 18 C28 20.31 28 22.62 28 25 C21.73 25 15.46 25 9 25 C9 28.63 9 32.26 9 36 C16.59 36 24.18 36 32 36 C32 38.31 32 40.62 32 43 C21.44 43 10.88 43 0 43 C0 28.81 0 14.62 0 0 Z " fill="#FFFFFF" transform="translate(432,155)"/>
<path d="M0 0 C-0.61277612 2.96175123 -1.25372522 4.38058783 -3 7 C-5.76276177 6.47731534 -8.3260876 5.89130413 -11 5 C-12.49676706 4.88340402 -13.99875061 4.82501041 -15.5 4.8125 C-16.2734375 4.79832031 -17.046875 4.78414062 -17.84375 4.76953125 C-20.29680056 4.86338472 -20.29680056 4.86338472 -23 7 C-22.67 8.65 -22.34 10.3 -22 12 C-20.83082031 12.31453125 -19.66164062 12.6290625 -18.45703125 12.953125 C-16.90867848 13.38478698 -15.36051097 13.81711386 -13.8125 14.25 C-13.04357422 14.45496094 -12.27464844 14.65992188 -11.48242188 14.87109375 C-6.85642729 16.18146131 -3.53154694 17.57131365 0 21 C1.74236845 24.48473689 1.4361376 28.19020983 1 32 C-0.44992388 35.4041691 -1.62508548 37.26073843 -4.91796875 39.03125 C-14.06865237 42.52956445 -23.02719548 41.58912181 -32 38 C-32.99 37.34 -33.98 36.68 -35 36 C-33.79618552 33.50638429 -32.54571278 31.31856917 -31 29 C-30.236875 29.309375 -29.47375 29.61875 -28.6875 29.9375 C-24.58246423 31.56042112 -21.40835675 32.18517122 -17 32.25 C-15.4221875 32.28867188 -15.4221875 32.28867188 -13.8125 32.328125 C-11.0119943 32.21339532 -11.0119943 32.21339532 -9.0625 30.734375 C-7.75967397 29.02154433 -7.75967397 29.02154433 -8.3125 26.8125 C-8.539375 26.214375 -8.76625 25.61625 -9 25 C-10.64548828 24.61908203 -10.64548828 24.61908203 -12.32421875 24.23046875 C-13.77875214 23.88325755 -15.23317342 23.53557642 -16.6875 23.1875 C-17.40873047 23.02185547 -18.12996094 22.85621094 -18.87304688 22.68554688 C-24.52724096 21.31718027 -28.73552882 20.03946965 -31.9375 14.875 C-33.61111538 10.37058375 -32.83809733 6.35072579 -31 2 C-23.27884914 -6.85661422 -9.4125071 -4.81083696 0 0 Z " fill="#FFFFFF" transform="translate(265,158)"/>
<path d="M0 0 C2.31 0 4.62 0 7 0 C10.83663478 8.2609907 14.41728214 16.61797052 17.93139648 25.01953125 C18.82603431 27.15734133 19.72440439 29.29355816 20.62304688 31.4296875 C21.19292904 32.78896999 21.76259878 34.14834156 22.33203125 35.5078125 C22.60070511 36.14623077 22.86937897 36.78464905 23.14619446 37.44241333 C25 41.88507707 25 41.88507707 25 43 C21.7 43 18.4 43 15 43 C14.01 40.69 13.02 38.38 12 36 C6.39 36 0.78 36 -5 36 C-5.99 38.31 -6.98 40.62 -8 43 C-10.97 43 -13.94 43 -17 43 C-16.30248717 38.05675692 -14.35121869 33.75122301 -12.40234375 29.19921875 C-11.87176109 27.9446563 -11.87176109 27.9446563 -11.33045959 26.66474915 C-10.2038802 24.00377214 -9.07079039 21.3456248 -7.9375 18.6875 C-7.17079235 16.87974029 -6.40451141 15.07179953 -5.63867188 13.26367188 C-3.76405268 8.84033484 -1.88359123 4.4195235 0 0 Z M3 13 C2.16260219 15.1234016 1.33019717 17.2487728 0.5 19.375 C0.0359375 20.55835938 -0.428125 21.74171875 -0.90625 22.9609375 C-2.11287794 25.7753244 -2.11287794 25.7753244 -2 28 C1.63 28 5.26 28 9 28 C8.23239022 24.16195111 7.40495674 21.23779856 5.9375 17.6875 C5.57527344 16.80449219 5.21304687 15.92148438 4.83984375 15.01171875 C4.56269531 14.34785156 4.28554688 13.68398437 4 13 C3.67 13 3.34 13 3 13 Z " fill="#FFFFFF" transform="translate(285,155)"/>
<path d="M0 0 C2.97 0 5.94 0 9 0 C9 11.88 9 23.76 9 36 C16.59 36 24.18 36 32 36 C32 38.31 32 40.62 32 43 C21.44 43 10.88 43 0 43 C0 28.81 0 14.62 0 0 Z " fill="#FFFFFF" transform="translate(670,155)"/>
<path d="M0 0 C2.97 0 5.94 0 9 0 C9 11.88 9 23.76 9 36 C16.59 36 24.18 36 32 36 C32 38.31 32 40.62 32 43 C21.44 43 10.88 43 0 43 C0 28.81 0 14.62 0 0 Z " fill="#FFFFFF" transform="translate(631,155)"/>
<path d="M0 0 C11.22 0 22.44 0 34 0 C34 2.31 34 4.62 34 7 C29.71 7 25.42 7 21 7 C21 18.88 21 30.76 21 43 C18.36 43 15.72 43 13 43 C13 31.12 13 19.24 13 7 C8.71 7 4.42 7 0 7 C0 4.69 0 2.38 0 0 Z " fill="#FFFFFF" transform="translate(853,155)"/>
<path d="M0 0 C11.22 0 22.44 0 34 0 C34 2.31 34 4.62 34 7 C29.71 7 25.42 7 21 7 C21 18.88 21 30.76 21 43 C18.36 43 15.72 43 13 43 C13 31.12 13 19.24 13 7 C8.71 7 4.42 7 0 7 C0 4.69 0 2.38 0 0 Z " fill="#FFFFFF" transform="translate(552,155)"/>
<path d="M0 0 C2.97 0 5.94 0 9 0 C9.07460234 4.42908378 9.12881371 8.8578269 9.16479492 13.28735352 C9.17980722 14.79165017 9.20022353 16.29590361 9.22631836 17.80004883 C9.26303816 19.97227696 9.27980161 22.14392251 9.29296875 24.31640625 C9.3086792 25.62037354 9.32438965 26.92434082 9.34057617 28.26782227 C8.85172129 33.62490083 7.50300153 37.53553697 3.5625 41.375 C-1.00309565 44.27025578 -5.63695354 44.71507286 -11 44 C-13.8805916 42.99502677 -16.54781876 41.82843439 -19 40 C-19.495 38.515 -19.495 38.515 -20 37 C-17.69 35.68 -15.38 34.36 -13 33 C-12.01 33.66 -11.02 34.32 -10 35 C-6.45800359 35.41673207 -6.45800359 35.41673207 -3 35 C-0.62931088 31.44396632 -0.65534892 28.82006655 -0.5859375 24.70703125 C-0.56657135 24.00100266 -0.5472052 23.29497406 -0.5272522 22.56755066 C-0.46754776 20.31598939 -0.4211086 18.06437672 -0.375 15.8125 C-0.33681171 14.28448311 -0.29775948 12.75648755 -0.2578125 11.22851562 C-0.16185404 7.48585065 -0.07778989 3.7430849 0 0 Z " fill="#FFFFFF" transform="translate(395,155)"/>
<path d="M0 0 C2.97 0 5.94 0 9 0 C9 14.19 9 28.38 9 43 C6.03 43 3.06 43 0 43 C0 28.81 0 14.62 0 0 Z " fill="#FFFFFF" transform="translate(708,155)"/>
<path d="M0 0 C2.97 0 5.94 0 9 0 C9 14.19 9 28.38 9 43 C6.03 43 3.06 43 0 43 C0 28.81 0 14.62 0 0 Z " fill="#FFFFFF" transform="translate(490,155)"/>
<path d="M0 0 C2.97 0 5.94 0 9 0 C9 14.19 9 28.38 9 43 C6.03 43 3.06 43 0 43 C0 28.81 0 14.62 0 0 Z " fill="#FFFFFF" transform="translate(414,155)"/>
<path d="M0 0 C1.4540625 0.0309375 1.4540625 0.0309375 2.9375 0.0625 C2.67579872 4.54684851 2.40914368 9.03086697 2.13793945 13.51464844 C2.04641457 15.03930725 1.95623228 16.56404728 1.86743164 18.08886719 C1.73939152 20.28343187 1.60649019 22.47765696 1.47265625 24.671875 C1.43406998 25.3511908 1.3954837 26.03050659 1.35572815 26.73040771 C1.15511777 29.94472328 0.87466295 32.97295182 -0.0625 36.0625 C-2.0425 35.7325 -4.0225 35.4025 -6.0625 35.0625 C-6.19175479 27.29763846 -5.82743501 19.66926695 -5.125 11.9375 C-5.03798828 10.89851562 -4.95097656 9.85953125 -4.86132812 8.7890625 C-4.09218608 0.083514 -4.09218608 0.083514 0 0 Z " fill="#FF0000" transform="translate(6.0625,162.9375)"/>
<path d="M0 0 C1.65 0 3.3 0 5 0 C4.85899586 3.93768809 4.71129067 7.87509905 4.5625 11.8125 C4.52318359 12.91271484 4.48386719 14.01292969 4.44335938 15.14648438 C4.1757452 22.12503863 3.71160177 29.05249661 3 36 C1.35 35.67 -0.3 35.34 -2 35 C-1.85885325 31.22897636 -1.7111987 27.4582328 -1.5625 23.6875 C-1.52318359 22.63498047 -1.48386719 21.58246094 -1.44335938 20.49804688 C-1.16901636 13.63947152 -0.69319348 6.82901897 0 0 Z " fill="#FF0000" transform="translate(11,163)"/>
<path d="M0 0 C1.32 0 2.64 0 4 0 C4.13425509 8.31262781 3.75613601 16.47337607 3 24.75 C2.85691406 26.38582031 2.85691406 26.38582031 2.7109375 28.0546875 C2.47857932 30.70357074 2.24155018 33.35194196 2 36 C0.35 36 -1.3 36 -3 36 C-2.73829872 31.51565149 -2.47164368 27.03163303 -2.20043945 22.54785156 C-2.10891457 21.02319275 -2.01873228 19.49845272 -1.92993164 17.97363281 C-1.80189152 15.77906813 -1.66899019 13.58484304 -1.53515625 11.390625 C-1.49656998 10.7113092 -1.4579837 10.03199341 -1.41822815 9.33209229 C-1.21761777 6.11777672 -0.93716295 3.08954818 0 0 Z " fill="#FF0000" transform="translate(19,163)"/>
</svg>

